<mxfile host="app.diagrams.net" agent="Mozilla/5.0 (Macintosh; Intel Mac OS X 10_15_7) AppleWebKit/537.36 (KHTML, like Gecko) Chrome/141.0.0.0 Safari/537.36" version="28.2.7">
  <diagram name="Page-1" id="imdtgqHURNdvsHkvpMUT">
    <mxGraphModel dx="976" dy="568" grid="1" gridSize="10" guides="1" tooltips="1" connect="1" arrows="1" fold="1" page="1" pageScale="1" pageWidth="850" pageHeight="1100" math="0" shadow="0">
      <root>
        <mxCell id="0" />
        <mxCell id="1" parent="0" />
        <mxCell id="yXBOpGToaWlm6yDnQdOQ-9" style="edgeStyle=orthogonalEdgeStyle;rounded=0;orthogonalLoop=1;jettySize=auto;html=1;exitX=1;exitY=0.5;exitDx=0;exitDy=0;" edge="1" parent="1" source="yXBOpGToaWlm6yDnQdOQ-1" target="yXBOpGToaWlm6yDnQdOQ-2">
          <mxGeometry relative="1" as="geometry" />
        </mxCell>
        <mxCell id="yXBOpGToaWlm6yDnQdOQ-11" style="edgeStyle=orthogonalEdgeStyle;rounded=0;orthogonalLoop=1;jettySize=auto;html=1;exitX=0.5;exitY=1;exitDx=0;exitDy=0;entryX=0.25;entryY=1;entryDx=0;entryDy=0;" edge="1" parent="1" source="yXBOpGToaWlm6yDnQdOQ-1" target="yXBOpGToaWlm6yDnQdOQ-3">
          <mxGeometry relative="1" as="geometry" />
        </mxCell>
        <mxCell id="yXBOpGToaWlm6yDnQdOQ-1" value="Input sentence" style="rounded=1;whiteSpace=wrap;html=1;" vertex="1" parent="1">
          <mxGeometry x="80" y="80" width="80" height="40" as="geometry" />
        </mxCell>
        <mxCell id="yXBOpGToaWlm6yDnQdOQ-10" style="edgeStyle=orthogonalEdgeStyle;rounded=0;orthogonalLoop=1;jettySize=auto;html=1;exitX=1;exitY=0.5;exitDx=0;exitDy=0;" edge="1" parent="1" source="yXBOpGToaWlm6yDnQdOQ-2" target="yXBOpGToaWlm6yDnQdOQ-3">
          <mxGeometry relative="1" as="geometry" />
        </mxCell>
        <mxCell id="yXBOpGToaWlm6yDnQdOQ-2" value="Language detector" style="rounded=1;whiteSpace=wrap;html=1;" vertex="1" parent="1">
          <mxGeometry x="240" y="80" width="80" height="40" as="geometry" />
        </mxCell>
        <mxCell id="yXBOpGToaWlm6yDnQdOQ-6" style="edgeStyle=orthogonalEdgeStyle;rounded=0;orthogonalLoop=1;jettySize=auto;html=1;exitX=0.5;exitY=1;exitDx=0;exitDy=0;entryX=0.5;entryY=0;entryDx=0;entryDy=0;" edge="1" parent="1" source="yXBOpGToaWlm6yDnQdOQ-3" target="yXBOpGToaWlm6yDnQdOQ-5">
          <mxGeometry relative="1" as="geometry" />
        </mxCell>
        <mxCell id="yXBOpGToaWlm6yDnQdOQ-8" style="edgeStyle=orthogonalEdgeStyle;rounded=0;orthogonalLoop=1;jettySize=auto;html=1;exitX=1;exitY=0.5;exitDx=0;exitDy=0;" edge="1" parent="1" source="yXBOpGToaWlm6yDnQdOQ-3" target="yXBOpGToaWlm6yDnQdOQ-4">
          <mxGeometry relative="1" as="geometry" />
        </mxCell>
        <mxCell id="yXBOpGToaWlm6yDnQdOQ-3" value="Translation service" style="rounded=1;whiteSpace=wrap;html=1;" vertex="1" parent="1">
          <mxGeometry x="400" y="80" width="80" height="40" as="geometry" />
        </mxCell>
        <mxCell id="yXBOpGToaWlm6yDnQdOQ-4" value="Translated sentence" style="rounded=1;whiteSpace=wrap;html=1;" vertex="1" parent="1">
          <mxGeometry x="560" y="80" width="80" height="40" as="geometry" />
        </mxCell>
        <mxCell id="yXBOpGToaWlm6yDnQdOQ-7" style="edgeStyle=orthogonalEdgeStyle;rounded=0;orthogonalLoop=1;jettySize=auto;html=1;exitX=0.5;exitY=0;exitDx=0;exitDy=0;entryX=0.5;entryY=1;entryDx=0;entryDy=0;" edge="1" parent="1" source="yXBOpGToaWlm6yDnQdOQ-5" target="yXBOpGToaWlm6yDnQdOQ-3">
          <mxGeometry relative="1" as="geometry" />
        </mxCell>
        <mxCell id="yXBOpGToaWlm6yDnQdOQ-5" value="English-Korean model" style="rounded=1;whiteSpace=wrap;html=1;" vertex="1" parent="1">
          <mxGeometry x="400" y="200" width="80" height="40" as="geometry" />
        </mxCell>
        <mxCell id="yXBOpGToaWlm6yDnQdOQ-12" value="Desired language" style="text;html=1;whiteSpace=wrap;strokeColor=none;fillColor=none;align=center;verticalAlign=middle;rounded=0;" vertex="1" parent="1">
          <mxGeometry x="240" y="140" width="120" height="30" as="geometry" />
        </mxCell>
      </root>
    </mxGraphModel>
  </diagram>
</mxfile>
